<!-- https://thenounproject.com/icon/3586728/ -->
<svg xmlns="http://www.w3.org/2000/svg" xmlns:xlink="http://www.w3.org/1999/xlink" width="100" height="100" viewBox="0 0 100 100">
<circle stroke="none" fill="#7400B3" r="48%" cx="50%" cy="50%"></circle>
<g transform="translate(50 50) scale(0.69 0.69) rotate(0) translate(-50 -50)" style="fill:#FFFFFF">
<svg fill="#FFFFFF" xmlns="http://www.w3.org/2000/svg" xmlns:xlink="http://www.w3.org/1999/xlink" version="1.1" x="0px" y="0px" viewBox="0 0 100 100" style="enable-background:new 0 0 100 100;" xml:space="preserve">
<path d="M15.42,22.05c3.03,0,5.5-2.47,5.5-5.5s-2.47-5.5-5.5-5.5s-5.5,2.47-5.5,5.5S12.39,22.05,15.42,22.05z M15.42,15.05  c0.83,0,1.5,0.67,1.5,1.5s-0.67,1.5-1.5,1.5s-1.5-0.67-1.5-1.5S14.59,15.05,15.42,15.05z M9.42,75.54c-1.38,0-2.5-1.12-2.5-2.5  c0-1.38,1.12-2.5,2.5-2.5c1.38,0,2.5,1.12,2.5,2.5C11.92,74.42,10.8,75.54,9.42,75.54z M93.57,31.05c0,1.38-1.12,2.5-2.5,2.5  c-1.38,0-2.5-1.12-2.5-2.5s1.12-2.5,2.5-2.5C92.45,28.55,93.57,29.67,93.57,31.05z M25.44,9.05c0-1.38,1.12-2.5,2.5-2.5  c1.38,0,2.5,1.12,2.5,2.5c0,1.38-1.12,2.5-2.5,2.5C26.56,11.55,25.44,10.43,25.44,9.05z M68.67,7.55c0-1.38,1.12-2.5,2.5-2.5  c1.38,0,2.5,1.12,2.5,2.5c0,1.38-1.12,2.5-2.5,2.5C69.79,10.05,68.67,8.93,68.67,7.55z M84.77,83.45c0,1.38-1.12,2.5-2.5,2.5  c-1.38,0-2.5-1.12-2.5-2.5c0-1.38,1.12-2.5,2.5-2.5C83.65,80.95,84.77,82.07,84.77,83.45z M35.44,93.45c0,1.38-1.12,2.5-2.5,2.5  c-1.38,0-2.5-1.12-2.5-2.5c0-1.38,1.12-2.5,2.5-2.5C34.32,90.95,35.44,92.07,35.44,93.45z M86.07,14.55v3c0,1.1-0.9,2-2,2  s-2-0.9-2-2v-3h-3c-1.1,0-2-0.9-2-2s0.9-2,2-2h3v-3c0-1.1,0.9-2,2-2s2,0.9,2,2v3h3c1.1,0,2,0.9,2,2s-0.9,2-2,2H86.07z M23.92,88.45  c0,1.1-0.9,2-2,2h-3v3c0,1.1-0.9,2-2,2s-2-0.9-2-2v-3h-3c-1.1,0-2-0.9-2-2s0.9-2,2-2h3v-3c0-1.1,0.9-2,2-2s2,0.9,2,2v3h3  C23.03,86.45,23.92,87.34,23.92,88.45z M82.58,63.08C80.01,79.45,66.92,90.45,50,90.45c-12.63,0-23.49-6.23-29.05-16.66  c-0.52-0.97-0.15-2.19,0.82-2.71c0.97-0.52,2.19-0.15,2.71,0.82c4.86,9.1,14.4,14.54,25.52,14.54c14.87,0,26.38-9.64,28.62-23.99  c0.17-1.09,1.2-1.83,2.29-1.67C82,60.97,82.75,61.99,82.58,63.08z M82.17,55.29c0.11,0.07,0.21,0.15,0.31,0.24  c0.37,0.38,0.58,0.89,0.58,1.42c0,0.53-0.21,1.03-0.58,1.41c-0.38,0.38-0.88,0.59-1.42,0.59c-0.53,0-1.03-0.21-1.41-0.59  c-0.38-0.38-0.59-0.88-0.59-1.41c0-0.53,0.22-1.05,0.59-1.42c0.09-0.09,0.19-0.17,0.3-0.24c0.11-0.08,0.23-0.14,0.35-0.19  s0.24-0.09,0.37-0.11c0.26-0.06,0.53-0.06,0.78,0c0.13,0.02,0.26,0.06,0.38,0.11S82.06,55.21,82.17,55.29z M30.39,18.91  C36.11,12.79,42.89,9.55,50,9.55c18.35,0,31.12,21.04,32.86,41.39c0.09,1.1-0.72,2.07-1.82,2.16c-1.11,0.09-2.07-0.72-2.16-1.82  C76.85,27.66,62.61,13.55,50,13.55c-5.97,0-11.75,2.8-16.69,8.09c-8.4,8.98-13.21,23.84-12.27,37.87c0.17,2.49,0.61,4.92,1.3,7.2  c0.32,1.06-0.28,2.17-1.33,2.5c-0.19,0.06-0.39,0.09-0.58,0.09c-0.86,0-1.65-0.56-1.91-1.42c-0.78-2.57-1.27-5.29-1.46-8.09  C16.04,44.7,21.27,28.66,30.39,18.91z M55.48,20.72c-1.01-0.44-1.48-1.62-1.04-2.63c0.44-1.01,1.62-1.48,2.63-1.04  c2.89,1.26,5.64,3.26,8.16,5.96c1.15,1.23,2.25,2.6,3.27,4.07c0.63,0.91,0.4,2.15-0.5,2.78c-0.35,0.24-0.75,0.36-1.14,0.36  c-0.63,0-1.26-0.3-1.65-0.86c-0.91-1.31-1.89-2.53-2.91-3.62C60.17,23.45,57.87,21.76,55.48,20.72z M31.21,60.56  c0,10.64,8.66,19.3,19.3,19.3c10.64,0,19.3-8.66,19.3-19.3s-8.66-19.3-19.3-19.3C39.87,41.26,31.21,49.92,31.21,60.56z M65.81,60.56  c0,8.44-6.87,15.3-15.3,15.3s-15.3-6.87-15.3-15.3s6.86-15.3,15.3-15.3S65.81,52.12,65.81,60.56z M51.96,49.17  c0.33-1.06,1.45-1.64,2.5-1.31c3.74,1.17,6.77,3.91,8.3,7.53c0.43,1.02-0.04,2.19-1.06,2.62c-0.25,0.11-0.52,0.16-0.78,0.16  c-0.78,0-1.52-0.46-1.84-1.22c-1.07-2.53-3.19-4.45-5.81-5.27C52.22,51.35,51.63,50.22,51.96,49.17z M50.2,49.09  c0.02,0.13,0.04,0.26,0.04,0.4c0,0.52-0.22,1.04-0.59,1.41c-0.37,0.37-0.89,0.59-1.41,0.59c-0.13,0-0.27-0.02-0.39-0.04  c-0.13-0.03-0.26-0.07-0.38-0.12s-0.24-0.11-0.34-0.18c-0.11-0.07-0.22-0.16-0.31-0.25c-0.37-0.37-0.58-0.89-0.58-1.41  c0-0.14,0.01-0.27,0.04-0.4c0.02-0.12,0.06-0.25,0.11-0.37c0.05-0.12,0.11-0.24,0.18-0.34c0.08-0.11,0.16-0.22,0.25-0.31  s0.2-0.17,0.31-0.25c0.1-0.07,0.22-0.13,0.34-0.18c0.12-0.05,0.25-0.09,0.38-0.11c0.25-0.06,0.52-0.06,0.78,0  c0.13,0.02,0.25,0.06,0.37,0.11c0.12,0.05,0.24,0.11,0.35,0.18c0.11,0.08,0.21,0.16,0.3,0.25s0.18,0.2,0.25,0.31  c0.07,0.1,0.13,0.22,0.18,0.34C50.13,48.84,50.17,48.97,50.2,49.09z"></path>
</svg>
</g>
</svg>
